PathFileType	4	(X/Y/Z)	C:\Users\Basilio\Documents\Thesis Gigler\squatting_fais\c3dfiles\038\SLS_back_pre5\markers_experimental.trc
DataRate	CameraRate	NumFrames	NumMarkers	Units	OrigDataRate	OrigDataStartFrame	OrigNumFrames
200.000000	200.000000	4	63	mm	200.000000	209	1674
Frame#	Time	FHD			LBHD			RBHD			C7			T10			CLAV			LSHO			LUUPA			LMUPA			LDUPA			LLEP			LMEP			LRAD			LUL			LRFIN			RSHO			RUPA1			RMUPA			RDUPA			RLEP			RMEP			RRAD			RUL			RUFIN			LASI			RASI			USACR			LSACR			RSACR			LTHI1			LTHI2			LTHI3			LTHI4			LLFC			LMFC			LTIB1			LTIB2			LTIB3			LTIB4			LLMAL			LMMAL			LHEE			LMT1			LMT2			LMT5			RTHI			RTHI2			RTHI3			RTHI4			RLFC			RMFC			RTIB1			RTIB2			RTIB3			RTIB4			RLMAL			RMMAL			RHEE			RMT1			RMT2			RMT5			*61			*62			
		X1	Y1	Z1	X2	Y2	Z2	X3	Y3	Z3	X4	Y4	Z4	X5	Y5	Z5	X6	Y6	Z6	X7	Y7	Z7	X8	Y8	Z8	X9	Y9	Z9	X10	Y10	Z10	X11	Y11	Z11	X12	Y12	Z12	X13	Y13	Z13	X14	Y14	Z14	X15	Y15	Z15	X16	Y16	Z16	X17	Y17	Z17	X18	Y18	Z18	X19	Y19	Z19	X20	Y20	Z20	X21	Y21	Z21	X22	Y22	Z22	X23	Y23	Z23	X24	Y24	Z24	X25	Y25	Z25	X26	Y26	Z26	X27	Y27	Z27	X28	Y28	Z28	X29	Y29	Z29	X30	Y30	Z30	X31	Y31	Z31	X32	Y32	Z32	X33	Y33	Z33	X34	Y34	Z34	X35	Y35	Z35	X36	Y36	Z36	X37	Y37	Z37	X38	Y38	Z38	X39	Y39	Z39	X40	Y40	Z40	X41	Y41	Z41	X42	Y42	Z42	X43	Y43	Z43	X44	Y44	Z44	X45	Y45	Z45	X46	Y46	Z46	X47	Y47	Z47	X48	Y48	Z48	X49	Y49	Z49	X50	Y50	Z50	X51	Y51	Z51	X52	Y52	Z52	X53	Y53	Z53	X54	Y54	Z54	X55	Y55	Z55	X56	Y56	Z56	X57	Y57	Z57	X58	Y58	Z58	X59	Y59	Z59	X60	Y60	Z60	X61	Y61	Z61	X62	Y62	Z62	X63	Y63	Z63	

210	1.045	-223.8405914306641	1783.968994140625	-1016.377319335938	-374.9808349609376	1722.260375976563	-1075.372314453125	-365.4205627441407	1710.6201171875	-930.9291992187502	-411.3213195800782	1547.496948242188	-999.5520629882815	-414.9405517578126	1264.95166015625	-982.7385864257815	-268.9793395996094	1518.03466796875	-1012.824462890625	-336.8330078125001	1551.065185546875	-1167.705444335938	-255.8701934814454	1360.451538085938	-1290.66552734375	-209.0101013183594	1377.611206054688	-1281.90478515625	-198.3760070800782	1324.584228515625	-1308.151611328125	-146.7230682373047	1290.158203125	-1315.619995117188	-173.3646087646485	1231.890258789063	-1272.234375	106.3453445434571	1172.488159179688	-1203.753784179688	102.2531890869141	1144.86767578125	-1269.992309570313	187.8799743652344	1157.588012695313	-1199.376586914063	-311.7821960449219	1548.470458984375	-849.9766235351565	-209.9833374023438	1394.263305664063	-730.7253417968751	-166.610595703125	1390.095581054688	-753.9406127929689	-161.865234375	1346.962158203125	-712.2848510742189	-105.4187240600586	1297.5673828125	-701.5720214843751	-143.1512145996094	1236.006103515625	-736.2704467773439	121.9371871948242	1156.049438476563	-801.7988891601565	127.8972625732422	1140.296508789063	-730.0040893554689	204.8619079589844	1138.12841796875	-796.165954589844	-250.879867553711	1073.735229492188	-1098.311645507813	-251.9319458007813	1089.046752929688	-847.0972900390627	-420.9033508300782	1123.258422851563	-974.6807861328127	-434.1432495117189	1093.439331054688	-1000.854919433594	-431.7055053710939	1095.836181640625	-944.8457641601565	-290.1386718750001	749.8060302734376	-1134.718017578125	-261.0073242187501	670.7710571289064	-1124.329833984375	-214.0138854980469	675.2725219726564	-1104.8525390625	-289.7885131835938	622.5833129882814	-1103.4697265625	-286.7138977050782	560.2278442382814	-1093.379272460938	-274.3883972167969	556.2388916015626	-973.7768554687502	-263.5260314941407	371.6237487792969	-1016.965087890625	-309.5495910644532	330.2524108886719	-1081.456298828125	-274.5368957519532	324.6535644531251	-1052.03759765625	-291.6666870117188	247.3695220947266	-1021.455383300781	-383.1492004394532	119.7268447875977	-1036.71728515625	-344.7197265625001	134.8112487792969	-966.214050292969	-432.3780517578126	100.8841629028321	-981.902526855469	-233.4781799316407	48.18006896972658	-975.5256958007815	-225.5155029296876	46.22859573364259	-1025.9765625	-271.3917236328126	35.01048660278321	-1072.984008789063	-302.4819641113282	814.134216308594	-785.2030029296877	-267.0731201171876	756.7277832031251	-779.1004638671877	-233.9566040039063	757.7622070312501	-784.1929321289065	-297.0582580566407	677.8934326171876	-796.5804443359377	-285.3692016601563	542.9039916992189	-803.9321289062502	-286.7551269531251	540.3567504882814	-923.9363403320315	-251.7510833740235	364.3397827148438	-827.3883056640627	-331.8757629394532	291.0006103515626	-786.1170654296877	-286.0175781250001	290.4970397949219	-797.237243652344	-280.8213195800782	238.1886749267579	-825.930114746094	-352.3447265625001	124.2901687622071	-792.4455566406252	-324.8575134277344	126.7896423339844	-871.8990478515627	-415.4797973632814	88.92711639404298	-851.3402099609377	-203.4488067626954	49.52356719970705	-847.5423583984377	-205.5629119873047	51.48937988281251	-800.8489379882815	-247.7496490478516	37.6437110900879	-755.0366210937501	nan	nan	nan	nan	nan	nan	
211	1.05	-224.0149230957032	1783.933959960938	-1016.623718261719	-375.1396179199219	1722.167846679688	-1075.669189453125	-365.6560974121094	1710.649291992188	-931.234313964844	-411.6129760742189	1547.456909179688	-999.8494873046877	-415.0219726562501	1264.968627929688	-982.9949951171877	-269.2185058593751	1518.035888671875	-1013.082397460938	-337.0690002441407	1551.197509765625	-1167.748046875	-254.7581024169922	1361.59375	-1290.913696289063	-207.9629364013672	1379.349731445313	-1282.224853515625	-196.8822326660157	1326.45458984375	-1308.492431640625	-144.9019470214844	1292.379638671875	-1316.049560546875	-171.240478515625	1233.569213867188	-1272.824462890625	108.8212890625	1177.151489257813	-1203.362426757813	105.4019012451172	1149.425170898438	-1270.067138671875	190.4423980712891	1163.428100585938	-1199.295654296875	-312.0095214843751	1548.611572265625	-850.4609375000002	-209.0448760986329	1395.426391601563	-731.0966796875001	-165.9243774414063	1391.942016601563	-754.8348999023439	-160.544921875	1348.752075195313	-712.4908447265626	-103.4988174438477	1299.985107421875	-701.8201293945314	-140.7765197753907	1238.25830078125	-736.3391113281251	124.7695922851563	1160.617065429688	-802.2175292968752	131.2307586669922	1144.898681640625	-730.4672241210939	208.0632019042969	1143.1904296875	-796.816589355469	-250.9801330566407	1073.731811523438	-1098.422119140625	-252.0562133789063	1089.126708984375	-847.2151489257815	-421.0400695800782	1123.254028320313	-974.9230957031252	-434.2204589843751	1093.521606445313	-1001.072021484375	-431.7354736328126	1095.93994140625	-945.0181884765627	-290.1804809570313	749.8255615234376	-1134.869873046875	-261.0749206542969	670.7305908203126	-1124.448486328125	-214.056869506836	675.2716674804689	-1104.91455078125	-289.8124694824219	622.5771484375001	-1103.532836914063	-286.7613220214844	560.2229614257814	-1093.429931640625	-274.4365234375001	556.2871704101564	-973.8728027343752	-263.5355224609376	371.5960693359376	-1017.046936035156	-309.6613159179688	330.2971496582032	-1081.493774414063	-274.5783996582032	324.6241149902344	-1052.103393554688	-291.6861877441407	247.3451080322266	-1021.479553222656	-383.2605285644532	119.699951171875	-1036.788818359375	-344.7303161621094	134.8108215332032	-966.1655273437502	-432.4209594726564	100.9165344238282	-981.8582763671877	-233.5160369873047	48.30803680419923	-975.5148925781252	-225.5159454345704	46.22371292114259	-1025.971801757813	-271.3825073242188	35.01992797851563	-1072.969848632813	-302.5152587890626	814.193542480469	-785.2920532226565	-267.1207885742188	756.8449096679689	-779.193054199219	-233.9593811035157	757.8280639648439	-784.2968750000002	-297.0373229980469	677.9557495117189	-796.601745605469	-285.3138122558594	542.9456787109376	-803.983581542969	-286.8162231445313	540.4443359375001	-923.9566040039065	-251.7605285644532	364.3581848144532	-827.4199218750002	-331.8348999023438	291.1069030761719	-786.131042480469	-286.0577697753907	290.4587707519532	-797.424255371094	-280.6477050781251	238.0823516845704	-825.9511718750002	-352.3313598632813	124.3845901489258	-792.4431762695315	-324.7897949218751	126.8095016479492	-871.902282714844	-415.518524169922	88.95262145996095	-851.4024658203127	-203.3941192626954	49.52018356323244	-847.5330810546877	-205.5708007812501	51.47514724731447	-800.8079833984377	-247.7781372070313	37.69559478759766	-755.0433959960939	nan	nan	nan	nan	nan	nan	
212	1.055	-224.2746276855469	1783.509521484375	-1016.707885742188	-375.2565612792969	1722.179931640625	-1075.9375	-365.8143920898438	1710.924438476563	-931.6257324218752	-411.7856445312501	1547.469604492188	-1000.133117675781	-415.1213378906251	1264.909912109375	-983.3348388671877	-269.4125366210938	1518.024780273438	-1013.279968261719	-337.2376708984376	1551.344360351563	-1167.832885742188	-253.5040283203126	1362.898315429688	-1291.319702148438	-207.0191497802735	1380.89990234375	-1282.442749023438	-195.4661254882813	1328.087036132813	-1308.9345703125	-143.5986480712891	1294.960815429688	-1316.627685546875	-168.6930084228516	1235.649169921875	-1273.33154296875	111.5160751342774	1181.568481445313	-1203.46484375	108.5354232788086	1154.039916992188	-1270.075073242188	193.0715789794922	1168.7734375	-1198.964965820313	-312.2115783691407	1548.752685546875	-850.9708251953127	-208.0558471679688	1396.97412109375	-731.4660644531251	-164.8612976074219	1393.669555664063	-755.0095214843751	-158.9351043701172	1350.7841796875	-712.9021606445314	-101.8625640869141	1302.373901367188	-702.1343994140626	-138.2562255859375	1240.052124023438	-736.6597900390626	127.6534423828125	1165.08447265625	-802.4559326171877	134.8659057617188	1149.600463867188	-731.0691528320314	211.4650115966797	1149.11376953125	-797.9291992187502	-250.9379882812501	1073.724243164063	-1098.55029296875	-252.2071228027344	1089.187377929688	-847.373229980469	-421.0809936523439	1123.740844726563	-975.1907958984377	-434.247039794922	1093.489990234375	-1001.248352050781	-431.8182983398439	1095.970336914063	-945.2085571289065	-290.2265930175782	749.7880859375001	-1135.018188476563	-261.1557006835938	670.7501831054689	-1124.511474609375	-214.0846557617188	675.2000122070314	-1104.93115234375	-289.8706054687501	622.5720825195314	-1103.631958007813	-286.5708923339844	560.4754028320314	-1093.436645507813	-274.4812927246094	556.2635498046876	-973.879089355469	-263.5851440429688	371.6065368652344	-1017.091491699219	-309.7097473144532	330.3204040527344	-1081.52783203125	-274.5881958007813	324.5953979492188	-1052.117919921875	-291.7545776367188	247.3442993164063	-1021.504333496094	-383.2363586425782	119.686752319336	-1036.806884765625	-344.6946105957032	134.821044921875	-966.2115478515627	-432.3323364257814	100.8551635742188	-981.9197387695315	-233.5427246093751	48.27345657348634	-975.5119628906252	-225.4855041503907	46.24729537963868	-1026.004272460938	-271.3583374023438	34.99378967285157	-1072.991333007813	-302.4950866699219	814.2656860351565	-785.372497558594	-267.1033325195313	756.9329223632814	-779.3322753906252	-233.9261016845704	758.1250000000001	-784.2861938476565	-296.9970703125001	677.9956665039064	-796.5977172851565	-285.3028564453126	543.0123901367189	-803.9682617187502	-286.7856445312501	540.5227661132814	-923.976501464844	-251.7354888916016	364.4325866699219	-827.468688964844	-331.8188171386719	291.1890563964844	-786.1363525390627	-285.9829101562501	290.6357116699219	-797.252380371094	-280.6215209960938	238.1421203613282	-825.979675292969	-352.2688598632813	124.512680053711	-792.4531860351565	-324.7586975097657	126.8655242919922	-871.915222167969	-415.4638671875001	88.95004272460939	-851.328308105469	-203.4749603271485	49.47745513916017	-847.5532836914065	-205.4744567871094	51.50549316406251	-800.8894653320315	-247.7966308593751	37.70468521118165	-755.0565185546876	nan	nan	nan	nan	nan	nan	
213	1.06	-224.343246459961	1783.782836914063	-1017.161193847656	-375.3923339843751	1722.322387695313	-1076.182495117188	-366.0096740722657	1710.918701171875	-931.8833007812502	-411.987030029297	1547.477416992188	-1000.383972167969	-415.2104492187501	1264.898559570313	-983.5857543945315	-269.6712951660157	1518.046508789063	-1013.505493164063	-337.4335632324219	1551.496337890625	-1167.958618164063	-252.6077728271485	1363.791015625	-1291.705200195313	-206.0010528564454	1382.4306640625	-1282.818481445313	-194.1864013671876	1329.883178710938	-1309.336181640625	-141.2123107910157	1296.82861328125	-1317.003295898438	-166.6838836669922	1237.504272460938	-1273.895629882813	114.3825454711914	1186.171020507813	-1202.933349609375	111.7061233520508	1158.545776367188	-1269.836547851563	195.9969177246094	1174.1103515625	-1198.633911132813	-312.4728393554688	1548.897094726563	-851.336120605469	-207.2133789062501	1398.303955078125	-731.8210449218751	-164.038818359375	1395.448486328125	-755.4038085937501	-157.804428100586	1352.594848632813	-713.1874389648439	-99.84526062011722	1304.797241210938	-702.5014038085939	-135.8185119628907	1242.232666015625	-736.8477172851564	130.6733856201172	1169.266479492188	-803.2321777343752	137.9965057373047	1154.405029296875	-731.8242797851564	214.6379089355469	1154.635375976563	-798.5571289062502	-251.1096649169922	1073.693237304688	-1098.66552734375	-252.3659362792969	1089.324584960938	-847.4898681640627	-421.2696228027345	1123.839721679688	-975.4468994140627	-434.3850708007814	1093.549682617188	-1001.519287109375	-431.9337463378907	1096.003662109375	-945.4190063476565	-290.3462524414063	749.8005371093751	-1135.053344726563	-261.2290649414063	670.7241210937501	-1124.5654296875	-214.0871124267579	675.1611938476564	-1104.987915039063	-289.9528808593751	622.5793457031251	-1103.681884765625	-286.9076232910157	560.1995849609376	-1093.572265625	-274.6099853515626	556.2382202148439	-973.9319458007815	-263.6217346191407	371.6560058593751	-1017.089660644531	-309.8033752441407	330.3497314453126	-1081.518676757813	-274.5835571289063	324.6152038574219	-1052.117431640625	-291.7500610351563	247.3985443115235	-1021.525512695313	-383.2583007812501	119.6837310791016	-1036.788940429688	-344.6983032226563	134.8231964111328	-966.2226562500002	-432.3785400390626	100.8881607055664	-981.9057617187502	-233.5107727050782	48.25164794921876	-975.5241699218752	-225.4718475341797	46.26201629638673	-1025.993896484375	-271.3836059570313	34.98948287963868	-1072.98828125	-302.4938049316407	814.3385009765627	-785.4393310546877	-267.0943908691407	757.0206909179689	-779.4273071289065	-233.8041992187501	758.2706909179689	-784.327819824219	-296.9567871093751	678.1288452148439	-796.712829589844	-285.3000488281251	543.1083374023439	-804.0711669921877	-286.7162170410157	540.5648193359376	-924.0322265625002	-251.719467163086	364.5069885253907	-827.4849243164065	-331.7781982421876	291.3357849121094	-786.2001953125002	-285.9856567382813	290.7375488281251	-797.3350219726565	-280.7452697753907	238.3894042968751	-825.9741210937502	-352.2812194824219	124.5326690673828	-792.4793701171877	-324.7910156250001	126.9523468017578	-871.962585449219	-415.5078735351564	89.01373291015626	-851.3583984375002	-203.4784545898438	49.53695297241212	-847.5129394531252	-205.5027618408204	51.49208450317384	-800.835144042969	-247.7095947265626	37.67448043823243	-755.0537719726564	nan	nan	nan	nan	nan	nan	
